<?xml version="1.0" encoding="iso-8859-1"?>
<!-- Uploaded to: SVG Repo, www.svgrepo.com, Generator: SVG Repo Mixer Tools -->
<!DOCTYPE svg PUBLIC "-//W3C//DTD SVG 1.1//EN" "http://www.w3.org/Graphics/SVG/1.1/DTD/svg11.dtd">
<svg fill="#000000" height="800px" width="800px" version="1.1" id="Capa_1" xmlns="http://www.w3.org/2000/svg" xmlns:xlink="http://www.w3.org/1999/xlink" 
	 viewBox="0 0 400.346 400.346" xml:space="preserve">
<g>
	<path d="M237.141,66.817c-35.104,0-67.598,11.373-94.008,30.615c11.357,2.639,20.479,10.568,24.949,20.834
		c13.777-8.797,29.326-15.053,45.989-18.082l17.984,25.098c1.173,1.641,3.068,2.613,5.087,2.613c2.018,0,3.913-0.973,5.087-2.613
		l17.984-25.098c52.512,9.545,94.018,51.051,103.562,103.563l-25.097,17.984c-1.64,1.174-2.613,3.068-2.613,5.086
		c0,2.019,0.973,3.914,2.613,5.088l25.097,17.983c-9.544,52.512-51.05,94.018-103.562,103.561l-17.984-25.097
		c-1.174-1.64-3.069-2.613-5.087-2.613c-2.018,0-3.913,0.974-5.087,2.613l-17.984,25.097c-25.498-4.634-48.386-16.82-66.295-34.127
		v40.152c25.534,17.256,56.294,27.342,89.365,27.342c88.225,0,160-71.774,160-160C397.141,138.593,325.366,66.817,237.141,66.817z
		 M237.141,110.892l-8.932-12.466c2.952-0.203,5.928-0.315,8.932-0.315c3.004,0,5.98,0.112,8.932,0.315L237.141,110.892z"/>
	<path d="M177.52,300.403l61.838-48.984c5.572-0.499,11.004-2.872,15.259-7.125c4.253-4.256,6.626-9.688,7.124-15.259l48.985-61.839
		c3.135-3.957,2.807-9.633-0.763-13.201c-3.568-3.57-9.244-3.898-13.202-0.764l-61.839,48.986
		c-5.571,0.498-11.003,2.871-15.258,7.124c-4.253,4.255-6.626,9.687-7.125,15.259l-48.985,61.838
		c-3.135,3.959-2.807,9.634,0.763,13.202C167.886,303.211,173.562,303.539,177.52,300.403z M232.477,222.178l9.328,9.28
		c-0.004,0.004-0.007,0.008-0.012,0.012c-2.565,2.565-6.738,2.565-9.304,0C229.928,228.908,229.925,224.745,232.477,222.178z
		 M215.024,237.836c1.16,2.331,2.703,4.518,4.641,6.458c1.938,1.938,4.124,3.48,6.453,4.638l-53.363,42.273L215.024,237.836z"/>
	<path d="M149.586,243.727c0.959-2.055,1.491-4.347,1.491-6.762V132.613c0-7.686-5.427-14.307-12.958-15.813l-28.894-5.78
		c-1.461-1.67-3.259-3.016-5.258-3.959c2.273-2.542,4.2-5.109,5.667-7.234c3.533-5.126,6.475-10.646,8.515-15.974
		c1.005-2.246,1.854-4.503,2.553-6.718c2.735-2.296,4.35-5.73,4.35-9.331v-8.819c0-2.535-0.791-5.007-2.254-7.063V39.504
		C122.798,17.721,105.076,0,83.291,0H70.482C48.701,0,30.977,17.721,30.977,39.504v12.421c-1.46,2.055-2.258,4.527-2.258,7.06v8.819
		c0,3.601,1.611,7.027,4.353,9.329c0.696,2.21,1.549,4.473,2.555,6.723c2.035,5.324,4.979,10.846,8.515,15.968
		c1.469,2.133,3.397,4.702,5.681,7.251c-1.994,0.946-3.778,2.289-5.236,3.951l-28.462,5.766c-7.516,1.521-12.92,8.128-12.92,15.804
		v104.37c0,2.415,0.534,4.708,1.485,6.762v11.439c0,7.788,6.314,14.107,14.106,14.107c2.841,0,5.488-0.849,7.7-2.296v108.045
		c0,13.986,11.34,25.323,25.326,25.323c13.979,0,25.317-11.337,25.317-25.323c0,13.986,11.331,25.323,25.324,25.323
		c13.98,0,25.312-11.337,25.312-25.323V266.978c2.219,1.447,4.864,2.296,7.708,2.296c7.793,0,14.103-6.319,14.103-14.107V243.727z
		 M69.306,143.242c-0.106,1.032-0.834,1.897-1.839,2.176c-0.226,0.064-0.451,0.093-0.679,0.093c-0.783,0-1.539-0.361-2.02-1.006
		l-7.119-9.44c-0.329-0.438-0.509-0.976-0.509-1.526l0.008-15.127c0.002-0.89,0.467-1.711,1.229-2.172
		c0.758-0.458,1.703-0.482,2.489-0.069c2.069,1.098,4.14,1.833,6.147,2.188c1.205,0.217,2.086,1.269,2.086,2.494v6.312
		c0.365,0.146,0.691,0.367,0.957,0.661c0.48,0.535,0.713,1.244,0.639,1.955L69.306,143.242z M96.113,135.064l-7.104,9.432
		c-0.487,0.645-1.239,1.013-2.021,1.013c-0.227,0-0.458-0.033-0.685-0.093c-1.002-0.28-1.731-1.145-1.837-2.182l-1.384-13.455
		c-0.074-0.711,0.155-1.42,0.634-1.955c0.264-0.294,0.592-0.515,0.959-0.661v-6.312c0-1.226,0.882-2.277,2.089-2.494
		c2.001-0.354,4.069-1.089,6.143-2.186c0.788-0.411,1.731-0.388,2.489,0.069c0.765,0.459,1.225,1.282,1.225,2.172l0.001,15.129
		C96.621,134.091,96.444,134.627,96.113,135.064z M98.687,91.963c-6.191,8.98-11.99,13.001-15,13.001H70.084
		c-3.006,0-8.81-4.021-15.002-13.001c-4.885-7.088-8.284-14.929-9.081-20.982l-0.14-1.048l-2.456-1.596
		c-0.72-0.468-1.153-1.264-1.153-2.125v-4.164c0-1.4,1.134-2.534,2.533-2.534h1.031v-4.517c0-0.961,0.544-1.836,1.401-2.266
		c3.488-1.737,10.407-4.66,17.571-4.66c5.71,0,10.45,1.902,14.082,5.651c4.521,4.678,9.741,7.048,15.494,7.048
		c3.268,0,6.634-0.77,10.02-2.289c0.783-0.351,1.69-0.282,2.415,0.185c0.338,0.219,0.606,0.509,0.808,0.848h1.381
		c1.399,0,2.535,1.134,2.535,2.534v4.165c0,0.86-0.437,1.656-1.153,2.124l-2.455,1.596l-0.142,1.048
		C106.974,77.032,103.575,84.875,98.687,91.963z"/>
</g>
</svg>